# This file uses centimeters as units for non-parametric coordinates.

mtllib Projectile_Spiky.mtl
g default
v -0.178408 -0.208417 0.206372
v -0.178408 -0.222401 0.121192
v -0.117665 -0.250150 0.121192
v -0.117665 -0.222401 0.206372
v -0.178408 -0.116775 0.206372
v -0.117665 -0.087711 0.206372
v -0.117665 -0.061546 0.121192
v -0.178408 -0.087711 0.121192
v -0.117665 -0.153707 0.249327
v -0.178408 -0.153707 0.206372
v -0.052611 -0.208417 0.206372
v -0.052611 -0.222401 0.121192
v -0.026778 -0.153707 0.121192
v -0.052611 -0.153707 0.206372
v -0.052611 -0.208417 0.046189
v -0.117665 -0.222401 0.046189
v -0.117665 -0.153707 0.002988
v -0.052611 -0.153707 0.046189
v -0.178408 -0.208417 0.046189
v -0.200847 -0.153707 0.121192
v -0.178408 -0.153707 0.046189
v -0.052611 -0.116775 0.206372
v -0.052611 -0.087711 0.121192
v -0.117665 -0.087711 0.046189
v -0.178408 -0.116775 0.046189
v -0.052611 -0.116775 0.046189
v -0.164793 -0.280278 0.190235
v -0.164793 -0.280646 0.187995
v -0.163195 -0.281375 0.187995
v -0.163195 -0.280646 0.190235
v 0.006341 -0.198213 0.184694
v 0.006341 -0.198581 0.182454
v 0.007020 -0.196774 0.182454
v 0.006341 -0.196774 0.184694
v -0.236876 -0.196575 0.063053
v -0.236876 -0.196943 0.065025
v -0.237467 -0.195137 0.065025
v -0.236876 -0.195137 0.063053
v -0.071214 -0.280199 0.054168
v -0.069503 -0.279832 0.054168
v -0.069503 -0.280199 0.056141
v -0.071214 -0.280929 0.056141
v -0.067306 -0.035706 0.194433
v -0.067306 -0.036394 0.196674
v -0.065595 -0.037158 0.196674
v -0.065595 -0.036394 0.194433
v -0.168283 -0.037865 0.049616
v -0.166685 -0.037177 0.049616
v -0.166685 -0.037865 0.047643
v -0.168283 -0.038630 0.047643
v 0.005489 -0.113487 0.059539
v 0.004810 -0.113487 0.057567
v 0.004810 -0.112516 0.057567
v 0.004810 -0.111751 0.059539
v -0.236428 -0.114140 0.184665
v -0.236428 -0.113376 0.182425
v -0.237018 -0.115111 0.182425
v -0.236428 -0.115111 0.184665
vt 0.049340 0.626974
vt 0.032203 0.482680
vt 0.193671 0.480307
vt 0.202474 0.633520
vt 0.020000 0.020000
vt 0.187952 0.030572
vt 0.193917 0.180003
vt 0.037364 0.178906
vt 0.392315 0.719744
vt 0.518748 0.688744
vt 0.519165 0.823344
vt 0.389455 0.825458
vt 0.404814 0.387878
vt 0.553615 0.340149
vt 0.547189 0.512333
vt 0.389455 0.520335
vt 0.657362 0.254046
vt 0.522025 0.285104
vt 0.522447 0.150404
vt 0.659950 0.148063
vt 0.035193 0.689493
vt 0.165943 0.648422
vt 0.161629 0.816701
vt 0.020000 0.823304
vt 0.183659 0.340149
vt 0.347440 0.348122
vt 0.362306 0.475498
vt 0.364921 0.020000
vt 0.359820 0.181324
vt 0.654017 0.719744
vt 0.656577 0.825663
vt 0.395529 0.254046
vt 0.392637 0.148269
vt 0.020000 0.346354
vt 0.199941 0.314592
vt 0.032487 0.325248
vt 0.688993 0.379972
vt 0.692403 0.516045
vt 0.319205 0.689529
vt 0.318581 0.822242
vt 0.374553 0.626974
vt 0.377735 0.324354
vt 0.518646 0.953642
vt 0.392692 0.897015
vt 0.553615 0.673842
vt 0.394417 0.604789
vt 0.521922 0.020000
vt 0.656761 0.076376
vt 0.165943 0.980000
vt 0.024736 0.910015
vt 0.653419 0.897304
vt 0.395907 0.076668
vt 0.681741 0.600850
vt 0.309629 0.905455
vt 0.118367 0.556894
vt 0.118087 0.554399
vt 0.120816 0.554508
vt 0.120998 0.557112
vt 0.478721 0.442097
vt 0.480909 0.441097
vt 0.480634 0.443749
vt 0.478326 0.444037
vt 0.101523 0.745608
vt 0.103430 0.744819
vt 0.103012 0.747274
vt 0.101053 0.747439
vt 0.270807 0.410468
vt 0.273532 0.410882
vt 0.273641 0.413111
vt 0.270829 0.412825
vt 0.273331 0.106094
vt 0.273745 0.103253
vt 0.276915 0.102439
vt 0.276435 0.105359
vt 0.116278 0.247635
vt 0.119044 0.246879
vt 0.118691 0.249331
vt 0.115862 0.250167
vt 0.604769 0.573259
vt 0.606612 0.573009
vt 0.606412 0.574262
vt 0.604654 0.575719
vt 0.230120 0.880194
vt 0.228112 0.881806
vt 0.228166 0.879263
vt 0.230255 0.878872
vn -0.316504 -0.921349 0.225701
vn -0.316504 -0.921349 0.225701
vn -0.316504 -0.921349 0.225701
vn -0.316504 -0.921349 0.225701
vn -0.396927 0.873115 0.283052
vn -0.018872 0.999642 -0.018982
vn -0.396927 0.873115 0.283052
vn -0.396927 0.873115 0.283052
vn -0.010026 -0.328722 0.944374
vn -0.011608 0.029705 0.999491
vn -0.389589 0.028007 0.920563
vn -0.348467 -0.308133 0.885226
vn 0.965690 -0.202154 0.163027
vn 0.965690 -0.202154 0.163027
vn 0.965690 -0.202153 0.163027
vn 0.965690 -0.202154 0.163027
vn -0.010072 -0.330396 -0.943789
vn -0.011651 0.029827 -0.999487
vn 0.369182 0.028577 -0.928918
vn 0.329425 -0.311970 -0.891153
vn -0.970918 -0.176552 -0.161700
vn -0.970919 -0.176552 -0.161700
vn -0.970919 -0.176552 -0.161700
vn -0.970919 -0.176552 -0.161700
vn 0.295245 -0.920464 -0.256080
vn 0.295245 -0.920464 -0.256080
vn 0.295245 -0.920464 -0.256080
vn 0.295245 -0.920464 -0.256080
vn 0.374417 0.882068 0.285950
vn 0.374417 0.882068 0.285950
vn 0.374417 0.882068 0.285950
vn 0.374417 0.882068 0.285950
vn 0.327935 -0.310559 0.892195
vn 0.367371 0.028473 0.929639
vn -0.011608 0.029705 0.999491
vn -0.010026 -0.328722 0.944374
vn -0.350025 -0.309511 -0.884130
vn -0.391472 0.028104 -0.919761
vn -0.011651 0.029827 -0.999487
vn -0.010072 -0.330396 -0.943789
vn -0.314193 -0.914623 -0.254454
vn -0.314193 -0.914623 -0.254454
vn -0.005144 -0.999918 -0.011704
vn -0.314193 -0.914623 -0.254454
vn -0.392398 0.863153 -0.317791
vn -0.392398 0.863153 -0.317791
vn -0.392398 0.863153 -0.317791
vn -0.392399 0.863153 -0.317791
vn 0.961992 -0.201381 -0.184439
vn 0.961992 -0.201380 -0.184439
vn 0.999789 0.020523 0.001117
vn 0.961992 -0.201380 -0.184439
vn -0.973783 -0.177072 0.142801
vn -0.973783 -0.177072 0.142801
vn -0.999705 0.014460 -0.019521
vn -0.973783 -0.177072 0.142801
vn 0.297444 -0.927320 0.227165
vn 0.297444 -0.927320 0.227165
vn -0.005144 -0.999918 -0.011704
vn 0.297444 -0.927320 0.227165
vn 0.370062 0.871798 -0.320972
vn 0.370062 0.871798 -0.320972
vn -0.018872 0.999642 -0.018982
vn 0.370062 0.871798 -0.320972
vn -0.009177 0.385121 0.922821
vn -0.386014 0.355286 0.851331
vn -0.389589 0.028007 0.920563
vn -0.011608 0.029705 0.999491
vn 0.953114 0.239214 0.185339
vn 0.953114 0.239214 0.185339
vn 0.953114 0.239214 0.185339
vn 0.999789 0.020523 0.001117
vn -0.009218 0.386993 -0.922037
vn 0.365457 0.360239 -0.858294
vn 0.369182 0.028577 -0.928918
vn -0.011651 0.029827 -0.999487
vn -0.960327 0.209365 -0.184222
vn -0.960327 0.209365 -0.184222
vn -0.960328 0.209365 -0.184222
vn -0.999705 0.014460 -0.019521
vn 0.363923 0.358728 0.859578
vn -0.009177 0.385121 0.922821
vn -0.011608 0.029705 0.999491
vn 0.367371 0.028473 0.929639
vn -0.387609 0.356755 -0.849991
vn -0.009218 0.386993 -0.922037
vn -0.011651 0.029827 -0.999487
vn -0.391472 0.028104 -0.919761
vn 0.948406 0.238030 -0.209446
vn 0.948406 0.238030 -0.209446
vn 0.948406 0.238030 -0.209446
vn 0.948406 0.238030 -0.209446
vn -0.964009 0.210170 0.162836
vn -0.964009 0.210170 0.162836
vn -0.964009 0.210170 0.162836
vn -0.964009 0.210170 0.162836
vn -0.980704 -0.192917 0.031670
vn -0.980704 -0.192917 0.031670
vn -0.980704 -0.192917 0.031670
vn -0.980704 -0.192917 0.031670
vn -0.339077 -0.742226 -0.578038
vn -0.339077 -0.742226 -0.578038
vn -0.339077 -0.742226 -0.578038
vn -0.339077 -0.742226 -0.578038
vn 0.741922 -0.637510 0.207685
vn 0.741922 -0.637510 0.207685
vn 0.741922 -0.637510 0.207685
vn 0.741922 -0.637510 0.207685
vn -0.052550 -0.228275 0.972177
vn -0.052550 -0.228275 0.972177
vn -0.052550 -0.228275 0.972177
vn -0.052550 -0.228275 0.972177
vn 0.224507 -0.961601 0.157859
vn 0.224507 -0.961601 0.157859
vn 0.224507 -0.961601 0.157859
vn 0.224507 -0.961601 0.157859
vn 0.743831 -0.279726 -0.607017
vn 0.743831 -0.279726 -0.607017
vn 0.743831 -0.279726 -0.607017
vn 0.743831 -0.279726 -0.607017
vn 0.623656 0.758471 0.189140
vn 0.623656 0.758471 0.189140
vn 0.623656 0.758471 0.189140
vn 0.623656 0.758471 0.189140
vn 0.345140 -0.000000 0.938551
vn 0.345140 -0.000000 0.938551
vn 0.345140 -0.000000 0.938551
vn 0.345140 -0.000000 0.938551
vn -0.244330 -0.953267 -0.177723
vn -0.244330 -0.953267 -0.177723
vn -0.244330 -0.953267 -0.177723
vn -0.244330 -0.953267 -0.177723
vn -0.724711 -0.236737 0.647109
vn -0.724711 -0.236737 0.647109
vn -0.724711 -0.236737 0.647109
vn -0.724711 -0.236737 0.647109
vn -0.602768 0.777270 -0.180338
vn -0.602768 0.777270 -0.180338
vn -0.602768 0.777270 -0.180338
vn -0.602768 0.777270 -0.180338
vn -0.277127 0.000000 -0.960833
vn -0.277127 0.000000 -0.960833
vn -0.277127 0.000000 -0.960833
vn -0.277127 0.000000 -0.960833
vn 0.025123 -0.116879 -0.992828
vn 0.025123 -0.116879 -0.992828
vn 0.025123 -0.116879 -0.992828
vn 0.025123 -0.116879 -0.992828
vn 0.971109 -0.234593 -0.043737
vn 0.971109 -0.234593 -0.043737
vn 0.971109 -0.234593 -0.043737
vn 0.971109 -0.234593 -0.043737
vn 0.319110 -0.748097 0.581824
vn 0.319110 -0.748097 0.581824
vn 0.319110 -0.748097 0.581824
vn 0.319110 -0.748097 0.581824
vn -0.742174 -0.628567 -0.232555
vn -0.742174 -0.628567 -0.232555
vn -0.742174 -0.628567 -0.232555
vn -0.742174 -0.628567 -0.232555
vn -0.676081 0.704348 0.216352
vn -0.676081 0.704348 0.216352
vn -0.676081 0.704348 0.216352
vn -0.676081 0.704349 0.216352
vn 0.058102 0.130051 0.989803
vn 0.058102 0.130051 0.989803
vn 0.058102 0.130051 0.989803
vn 0.058102 0.130051 0.989803
vn 0.984220 0.167469 0.057141
vn 0.984220 0.167469 0.057141
vn 0.984220 0.167469 0.057141
vn 0.984220 0.167469 0.057141
vn 0.322236 0.801192 -0.504238
vn 0.322236 0.801192 -0.504238
vn 0.322236 0.801192 -0.504238
vn 0.322236 0.801192 -0.504238
vn -0.341671 0.793214 0.504056
vn -0.341671 0.793214 0.504056
vn -0.341671 0.793214 0.504056
vn -0.341671 0.793214 0.504056
vn 0.688870 0.684435 -0.238760
vn 0.688871 0.684435 -0.238760
vn 0.688870 0.684435 -0.238760
vn 0.688871 0.684435 -0.238760
vn -0.009491 0.019835 -0.999758
vn -0.009491 0.019835 -0.999758
vn -0.009491 0.019835 -0.999758
vn -0.009491 0.019835 -0.999758
vn -0.990347 0.129247 -0.050084
vn -0.990347 0.129247 -0.050084
vn -0.990347 0.129247 -0.050084
vn -0.990347 0.129247 -0.050084
vn 0.588428 -0.782737 -0.202670
vn 0.588428 -0.782737 -0.202670
vn 0.588428 -0.782737 -0.202670
vn 0.588428 -0.782737 -0.202670
vn 0.194377 0.000000 -0.980927
vn 0.194377 0.000000 -0.980927
vn 0.194377 0.000000 -0.980927
vn 0.194377 0.000000 -0.980927
vn 0.002433 0.932438 -0.361322
vn 0.002433 0.932438 -0.361322
vn 0.002433 0.932438 -0.361322
vn 0.002433 0.932438 -0.361322
vn 0.753858 0.295085 0.587045
vn 0.753858 0.295085 0.587045
vn 0.753858 0.295085 0.587045
vn 0.753858 0.295085 0.587045
vn -0.077604 0.943570 0.321952
vn -0.077604 0.943570 0.321952
vn -0.077604 0.943570 0.321952
vn -0.077604 0.943570 0.321952
vn -0.752992 0.256030 -0.606178
vn -0.752992 0.256030 -0.606178
vn -0.752992 0.256030 -0.606178
vn -0.752992 0.256030 -0.606178
vn -0.586636 -0.794968 0.154543
vn -0.586636 -0.794968 0.154543
vn -0.586636 -0.794968 0.154543
vn -0.586636 -0.794968 0.154543
vn -0.350407 -0.000000 0.936598
vn -0.350407 -0.000000 0.936598
vn -0.350407 -0.000000 0.936598
vn -0.350407 -0.000000 0.936598
s off
g bolitaFBXASC032puas
usemtl bolitaFBXASC032puasSG
f 28/56/1 29/57/2 30/58/3 27/55/4
f 6/6/5 7/7/6 8/8/7 5/5/8
f 4/10/9 9/11/10 10/12/11 1/9/12
f 32/60/13 33/61/14 34/62/15 31/59/16
f 16/18/17 17/19/18 18/20/19 15/17/20
f 36/64/21 37/65/22 38/66/23 35/63/24
f 40/68/25 41/69/26 42/70/27 39/67/28
f 45/73/29 46/74/30 43/71/31 44/72/32
f 11/30/33 14/31/34 9/11/35 4/10/36
f 19/32/37 21/33/38 17/19/39 16/18/40
f 19/34/41 16/25/42 3/3/43 2/2/44
f 49/77/45 50/78/46 47/75/47 48/76/48
f 15/37/49 18/38/50 13/15/51 12/14/52
f 1/39/53 10/40/54 20/23/55 2/22/56
f 11/41/57 4/4/58 3/3/59 12/27/60
f 26/42/61 24/35/62 7/7/63 23/29/64
f 6/43/65 5/44/66 10/12/67 9/11/68
f 23/45/69 22/46/70 14/16/71 13/15/72
f 24/47/73 26/48/74 18/20/75 17/19/76
f 8/49/77 25/50/78 21/24/79 20/23/80
f 22/51/81 6/43/82 9/11/83 14/31/84
f 25/52/85 24/47/86 17/19/87 21/33/88
f 53/81/89 54/82/90 51/79/91 52/80/92
f 55/83/93 56/84/94 57/85/95 58/86/96
f 1/1/97 2/2/98 28/56/99 27/55/100
f 2/2/101 3/3/102 29/57/103 28/56/104
f 3/3/105 4/4/106 30/58/107 29/57/108
f 4/4/109 1/1/110 27/55/111 30/58/112
f 11/13/113 12/14/114 32/60/115 31/59/116
f 12/14/117 13/15/118 33/61/119 32/60/120
f 13/15/121 14/16/122 34/62/123 33/61/124
f 14/16/125 11/13/126 31/59/127 34/62/128
f 19/21/129 2/22/130 36/64/131 35/63/132
f 2/22/133 20/23/134 37/65/135 36/64/136
f 20/23/137 21/24/138 38/66/139 37/65/140
f 21/24/141 19/21/142 35/63/143 38/66/144
f 16/25/145 15/26/146 40/68/147 39/67/148
f 15/26/149 12/27/150 41/69/151 40/68/152
f 12/27/153 3/3/154 42/70/155 41/69/156
f 3/3/157 16/25/158 39/67/159 42/70/160
f 7/7/161 6/6/162 44/72/163 43/71/164
f 6/6/165 22/28/166 45/73/167 44/72/168
f 22/28/169 23/29/170 46/74/171 45/73/172
f 23/29/173 7/7/174 43/71/175 46/74/176
f 8/8/177 7/7/178 48/76/179 47/75/180
f 7/7/181 24/35/182 49/77/183 48/76/184
f 24/35/185 25/36/186 50/78/187 49/77/188
f 25/36/189 8/8/190 47/75/191 50/78/192
f 13/15/193 18/38/194 52/80/195 51/79/196
f 18/38/197 26/53/198 53/81/199 52/80/200
f 26/53/201 23/45/202 54/82/203 53/81/204
f 23/45/205 13/15/206 51/79/207 54/82/208
f 5/54/209 8/49/210 56/84/211 55/83/212
f 8/49/213 20/23/214 57/85/215 56/84/216
f 20/23/217 10/40/218 58/86/219 57/85/220
f 10/40/221 5/54/222 55/83/223 58/86/224
